<?xml version="1.0" encoding="UTF-8" standalone="no"?>
<!DOCTYPE svg PUBLIC "-//W3C//DTD SVG 20010904//EN"
              "http://www.w3.org/TR/2001/REC-SVG-20010904/DTD/svg10.dtd">

<svg xmlns="http://www.w3.org/2000/svg"
     width="0.333333in" height="0.333333in"
     viewBox="0 0 100 100">
  <path id="Sélection"
        fill="none" stroke="black" stroke-width="1"
        d="M 29.60,46.30
           C 29.60,46.57 29.64,47.03 29.44,47.23
             29.23,47.43 28.78,47.40 28.50,47.40
             28.50,47.40 26.10,47.40 26.10,47.40
             25.92,47.40 25.69,47.40 25.53,47.30
             25.29,47.14 25.31,46.85 25.30,46.60
             25.30,46.60 22.10,46.60 22.10,46.60
             22.10,47.29 22.06,48.28 22.58,48.80
             23.34,49.57 24.22,49.40 25.20,49.40
             25.20,49.40 30.90,49.40 30.90,49.40
             31.43,49.40 31.99,49.34 32.38,48.94
             32.75,48.55 32.79,48.01 32.80,47.50
             32.81,46.98 32.84,45.87 32.69,45.42
             32.45,44.68 31.64,44.21 30.90,44.20
             30.90,44.20 25.30,44.20 25.30,44.20
             25.30,43.89 25.26,43.40 25.54,43.20
             25.75,43.06 26.43,43.10 26.70,43.10
             26.70,43.10 28.50,43.10 28.50,43.10
             28.76,43.10 29.13,43.07 29.34,43.23
             29.58,43.40 29.58,43.64 29.60,43.90
             29.60,43.90 32.80,43.90 32.80,43.90
             32.80,42.92 32.96,42.06 32.03,41.43
             31.57,41.12 30.28,41.20 29.70,41.20
             29.70,41.20 24.00,41.20 24.00,41.20
             23.40,41.20 22.95,41.21 22.51,41.68
             22.14,42.07 22.11,42.88 22.10,43.40
             22.09,44.32 22.01,45.72 23.03,46.16
             23.30,46.27 23.71,46.30 24.00,46.30
             24.00,46.30 29.60,46.30 29.60,46.30 Z
           M 33.60,49.40
           C 33.60,49.40 36.70,49.40 36.70,49.40
             36.70,49.40 36.70,47.30 36.70,47.30
             36.70,47.30 42.50,47.30 42.50,47.30
             42.94,47.29 43.56,47.12 43.84,46.75
             44.09,46.41 44.19,46.01 44.20,45.60
             44.20,45.60 44.20,42.90 44.20,42.90
             44.20,41.62 43.63,41.21 42.40,41.20
             42.40,41.20 35.50,41.20 35.50,41.20
             34.16,41.20 33.60,41.74 33.60,43.10
             33.60,43.10 33.60,49.40 33.60,49.40 Z
           M 45.00,49.40
           C 45.00,49.40 48.00,49.40 48.00,49.40
             48.00,49.40 48.00,47.30 48.00,47.30
             48.00,47.30 52.40,47.30 52.40,47.30
             52.40,47.30 52.40,49.40 52.40,49.40
             52.40,49.40 55.60,49.40 55.60,49.40
             55.60,49.40 55.60,42.90 55.60,42.90
             55.58,41.58 54.90,41.20 53.70,41.20
             53.70,41.20 46.90,41.20 46.90,41.20
             45.68,41.20 45.00,41.60 45.00,42.90
             45.00,42.90 45.00,49.40 45.00,49.40 Z
           M 67.00,46.60
           C 67.00,46.60 63.70,46.60 63.70,46.60
             63.69,46.85 63.71,47.14 63.47,47.30
             63.28,47.42 62.92,47.40 62.70,47.40
             62.70,47.40 60.40,47.40 60.40,47.40
             60.14,47.40 59.76,47.42 59.56,47.23
             59.37,47.04 59.40,46.65 59.40,46.40
             59.40,46.40 59.40,44.20 59.40,44.20
             59.40,43.91 59.37,43.51 59.59,43.29
             59.80,43.08 60.13,43.10 60.40,43.10
             60.40,43.10 62.80,43.10 62.80,43.10
             63.00,43.10 63.29,43.09 63.46,43.20
             63.69,43.36 63.69,43.65 63.70,43.90
             63.70,43.90 67.00,43.90 67.00,43.90
             67.00,42.89 67.19,42.52 66.49,41.74
             66.40,41.63 66.25,41.47 66.14,41.39
             65.73,41.12 64.34,41.20 63.80,41.20
             63.80,41.20 58.30,41.20 58.30,41.20
             57.76,41.20 57.09,41.19 56.71,41.63
             56.37,42.01 56.40,42.42 56.40,42.90
             56.40,42.90 56.40,47.60 56.40,47.60
             56.40,47.93 56.38,48.27 56.52,48.57
             57.01,49.69 59.18,49.40 60.20,49.40
             60.20,49.40 65.00,49.40 65.00,49.40
             65.76,49.40 66.36,49.15 66.77,48.48
             67.10,47.95 67.00,47.21 67.00,46.60 Z
           M 78.20,46.80
           C 78.20,46.80 75.30,46.80 75.30,46.80
             75.20,47.39 74.95,47.39 74.40,47.40
             74.40,47.40 71.00,47.40 71.00,47.40
             71.00,47.40 71.00,46.20 71.00,46.20
             71.00,46.20 75.30,46.20 75.30,46.20
             75.30,46.20 75.30,44.60 75.30,44.60
             75.30,44.60 71.00,44.60 71.00,44.60
             71.00,44.60 71.00,43.10 71.00,43.10
             71.00,43.10 74.40,43.10 74.40,43.10
             74.99,43.11 75.21,43.18 75.30,43.80
             75.30,43.80 78.20,43.80 78.20,43.80
             78.20,43.80 78.20,42.30 78.20,42.30
             78.18,40.88 76.92,41.20 75.90,41.20
             75.90,41.20 68.70,41.20 68.70,41.20
             68.50,41.20 68.12,41.18 67.96,41.30
             67.71,41.50 67.80,42.66 67.80,43.00
             67.80,43.00 67.80,48.40 67.80,48.40
             67.80,48.65 67.76,49.13 67.97,49.30
             68.13,49.43 68.51,49.40 68.70,49.40
             68.70,49.40 71.30,49.40 71.30,49.40
             71.30,49.40 77.00,49.40 77.00,49.40
             77.87,49.40 78.19,49.08 78.20,48.20
             78.20,48.20 78.20,46.80 78.20,46.80 Z
           M 41.00,43.10
           C 41.00,43.10 41.10,45.20 41.10,45.20
             41.10,45.20 36.70,45.20 36.70,45.20
             36.70,45.20 36.80,43.10 36.80,43.10
             36.80,43.10 41.00,43.10 41.00,43.10 Z
           M 52.40,43.10
           C 52.40,43.10 52.40,45.20 52.40,45.20
             52.40,45.20 48.00,45.20 48.00,45.20
             48.00,44.37 47.91,43.89 48.20,43.10
             48.20,43.10 52.40,43.10 52.40,43.10 Z
           M 22.10,55.50
           C 22.10,55.50 24.10,55.50 24.10,55.50
             24.10,55.50 24.10,54.20 24.10,54.20
             24.50,54.20 26.00,54.13 26.26,54.30
             26.53,54.48 26.73,55.19 26.80,55.50
             26.80,55.50 28.70,55.50 28.70,55.50
             28.70,55.50 28.32,54.31 28.32,54.31
             28.34,54.03 28.58,53.93 28.72,53.50
             28.83,53.14 28.80,52.40 28.80,52.00
             28.80,51.55 28.82,50.98 28.46,50.65
             28.17,50.39 27.76,50.40 27.40,50.40
             27.40,50.40 23.60,50.40 23.60,50.40
             23.13,50.40 22.68,50.41 22.37,50.82
             22.12,51.16 22.10,51.69 22.10,52.10
             22.10,52.10 22.10,55.50 22.10,55.50 Z
           M 29.36,50.50
           C 29.08,50.89 29.20,51.72 29.20,52.20
             29.20,52.71 29.14,54.42 29.29,54.80
             29.39,55.06 29.56,55.24 29.80,55.37
             30.08,55.51 30.40,55.50 30.70,55.50
             30.70,55.50 33.70,55.50 33.70,55.50
             34.10,55.50 34.55,55.53 34.86,55.24
             35.17,54.95 35.19,54.40 35.20,54.00
             35.20,54.00 35.20,51.20 35.20,51.20
             35.20,50.99 35.23,50.65 35.04,50.50
             34.89,50.39 34.58,50.40 34.40,50.40
             33.39,50.39 33.21,50.34 33.20,51.10
             33.20,51.10 33.20,53.30 33.20,53.30
             33.20,53.55 33.23,53.95 33.04,54.14
             32.81,54.37 31.59,54.37 31.36,54.14
             31.17,53.95 31.20,53.55 31.20,53.30
             31.20,53.30 31.20,51.30 31.20,51.30
             31.20,51.07 31.24,50.66 31.04,50.50
             30.88,50.38 30.50,50.40 30.30,50.40
             29.94,50.40 29.70,50.36 29.36,50.50 Z
           M 37.50,53.20
           C 37.50,53.20 39.10,54.70 39.10,54.70
             39.33,54.92 39.62,55.24 39.90,55.36
             40.20,55.53 41.69,55.60 41.90,55.36
             42.02,55.18 42.00,54.80 42.00,54.60
             42.00,54.60 42.00,51.30 42.00,51.30
             42.00,51.10 42.02,50.72 41.90,50.56
             41.71,50.32 40.29,50.32 40.10,50.56
             40.00,50.69 40.00,50.94 40.00,51.10
             40.00,51.10 40.00,52.70 40.00,52.70
             40.00,52.70 38.40,51.20 38.40,51.20
             38.17,50.98 37.88,50.66 37.60,50.54
             37.30,50.37 35.81,50.30 35.60,50.54
             35.48,50.72 35.50,51.10 35.50,51.30
             35.50,51.30 35.50,54.60 35.50,54.60
             35.50,54.80 35.48,55.18 35.60,55.34
             35.79,55.58 37.21,55.58 37.40,55.34
             37.50,55.21 37.50,54.96 37.50,54.80
             37.50,54.80 37.50,53.20 37.50,53.20 Z
           M 42.50,55.50
           C 42.50,55.50 44.40,55.50 44.40,55.50
             44.40,55.50 44.40,54.20 44.40,54.20
             44.40,54.20 47.10,54.20 47.10,54.20
             47.10,54.20 47.10,55.50 47.10,55.50
             47.10,55.50 49.10,55.50 49.10,55.50
             49.10,55.50 49.10,51.80 49.10,51.80
             49.10,51.43 49.11,51.02 48.85,50.73
             48.57,50.41 48.18,50.41 47.80,50.40
             47.80,50.40 44.00,50.40 44.00,50.40
             43.52,50.40 42.99,50.39 42.67,50.82
             42.44,51.14 42.50,51.80 42.50,52.20
             42.50,52.20 42.50,55.50 42.50,55.50 Z
           M 49.60,50.40
           C 49.60,50.40 49.70,53.00 49.70,53.00
             49.70,53.00 49.80,54.50 49.80,54.50
             49.80,54.74 49.75,55.23 49.96,55.40
             50.09,55.50 50.34,55.50 50.50,55.50
             50.90,55.51 52.50,55.57 52.76,55.40
             52.98,55.26 53.26,54.65 53.40,54.40
             53.40,54.40 54.04,55.40 54.04,55.40
             54.04,55.40 54.70,55.50 54.70,55.50
             54.70,55.50 56.90,55.50 56.90,55.50
             56.90,55.50 57.00,54.40 57.00,54.40
             57.00,54.40 57.00,53.50 57.00,53.50
             57.00,53.50 57.12,52.30 57.12,52.30
             57.12,52.30 57.12,50.63 57.12,50.63
             57.01,50.36 56.65,50.40 56.40,50.40
             56.40,50.40 55.30,50.40 55.30,50.40
             55.30,50.40 55.10,52.90 55.10,52.90
             55.10,52.90 53.98,51.30 53.98,51.30
             53.98,51.30 53.40,51.20 53.40,51.20
             53.40,51.20 52.73,51.36 52.73,51.36
             52.73,51.36 51.60,52.90 51.60,52.90
             51.60,52.90 51.60,51.50 51.60,51.50
             51.60,51.50 51.50,50.40 51.50,50.40
             51.50,50.40 49.60,50.40 49.60,50.40 Z
           M 57.70,55.50
           C 57.70,55.50 59.60,55.50 59.60,55.50
             59.60,55.50 59.60,54.20 59.60,54.20
             59.60,54.20 62.30,54.20 62.30,54.20
             62.30,54.20 62.30,55.50 62.30,55.50
             62.30,55.50 64.30,55.50 64.30,55.50
             64.30,55.50 64.30,51.80 64.30,51.80
             64.30,51.43 64.31,51.02 64.05,50.73
             63.77,50.41 63.38,50.41 63.00,50.40
             63.00,50.40 59.20,50.40 59.20,50.40
             58.72,50.40 58.19,50.39 57.87,50.82
             57.64,51.14 57.70,51.80 57.70,52.20
             57.70,52.20 57.70,55.50 57.70,55.50 Z
           M 64.80,50.40
           C 64.80,50.40 64.80,52.50 64.80,52.50
             64.80,52.89 64.77,53.26 65.04,53.58
             65.47,54.07 66.20,54.10 66.80,54.10
             66.80,54.10 66.80,55.50 66.80,55.50
             66.80,55.50 69.30,55.50 69.30,55.50
             69.30,55.50 69.30,54.08 69.30,54.08
             69.60,54.10 69.90,54.11 70.20,54.08
             71.73,53.76 71.40,52.49 71.40,51.30
             71.40,50.53 71.41,50.41 70.60,50.40
             70.39,50.40 69.80,50.38 69.63,50.46
             69.38,50.58 69.40,50.86 69.40,51.10
             69.39,51.47 69.49,52.49 69.24,52.74
             69.00,52.98 68.05,52.90 67.70,52.88
             67.55,52.90 67.24,52.91 67.11,52.88
             66.30,52.65 66.96,51.02 66.60,50.56
             66.40,50.31 65.15,50.40 64.80,50.40 Z
           M 76.40,53.60
           C 76.38,53.83 76.39,54.05 76.17,54.20
             76.00,54.31 75.70,54.30 75.50,54.30
             75.14,54.30 74.11,54.38 73.86,54.14
             73.74,54.03 73.74,53.94 73.70,53.80
             73.70,53.80 71.70,53.80 71.70,53.80
             71.71,54.27 71.74,54.91 72.12,55.24
             72.46,55.52 72.88,55.50 73.30,55.50
             73.30,55.50 77.10,55.50 77.10,55.50
             77.44,55.50 77.80,55.49 78.06,55.25
             78.37,54.96 78.40,54.49 78.40,54.10
             78.41,53.01 78.27,52.32 77.00,52.30
             77.00,52.30 73.70,52.30 73.70,52.30
             73.72,52.07 73.71,51.85 73.93,51.70
             74.10,51.59 74.40,51.60 74.60,51.60
             74.96,51.60 75.99,51.52 76.24,51.76
             76.36,51.87 76.36,51.96 76.40,52.10
             76.40,52.10 78.40,52.10 78.40,52.10
             78.40,51.57 78.45,51.02 77.99,50.65
             77.67,50.39 77.29,50.40 76.90,50.40
             76.90,50.40 73.00,50.40 73.00,50.40
             72.66,50.40 72.31,50.42 72.04,50.66
             71.56,51.12 71.60,52.79 72.04,53.27
             72.33,53.58 72.71,53.59 73.10,53.60
             73.10,53.60 76.40,53.60 76.40,53.60 Z
           M 26.80,52.90
           C 26.80,52.90 24.10,52.90 24.10,52.90
             24.10,52.65 24.06,51.94 24.20,51.76
             24.34,51.59 24.61,51.60 24.80,51.60
             25.15,51.59 26.50,51.51 26.70,51.76
             26.84,51.94 26.80,52.65 26.80,52.90 Z
           M 47.10,51.60
           C 47.10,51.60 47.10,52.90 47.10,52.90
             47.10,52.90 44.40,52.90 44.40,52.90
             44.40,52.90 44.52,51.76 44.52,51.76
             44.52,51.76 45.10,51.60 45.10,51.60
             45.10,51.60 47.10,51.60 47.10,51.60 Z
           M 62.30,51.60
           C 62.30,51.60 62.30,52.90 62.30,52.90
             62.30,52.90 59.60,52.90 59.60,52.90
             59.60,52.90 59.72,51.76 59.72,51.76
             59.72,51.76 60.30,51.60 60.30,51.60
             60.30,51.60 62.30,51.60 62.30,51.60 Z" />
</svg>
